<svg xmlns="http://www.w3.org/2000/svg" viewBox="0 0 128 128">
  <path fill="#00599c" d="M64 3 9 35v58l55 32 55-32V35z"/>
  <path fill="#004482" d="m64 14 45 26v48l-45 26-45-26V40z"/>
  <path fill="#fff" d="M56.8 84.9c-4.1 3.8-9.7 5.7-16.5 5.7-6.9 0-12.8-2.3-17.5-7-4.7-4.7-7-10.5-7-17.5 0-7 2.3-12.8 7-17.5 4.7-4.7 10.5-7 17.5-7 6.9 0 12.4 1.9 16.5 5.7l-6.4 7.5c-2.5-2-5.7-3.1-9.7-3.1-4 0-7.5 1.3-10.2 4.1-2.7 2.7-4.1 6.1-4.1 10.3 0 4.2 1.4 7.6 4.1 10.3 2.7 2.7 6.1 4.1 10.2 4.1 4.1 0 7.3-1 9.7-3.1zm24.1-20.1h6.3v-6.3h4.9v6.3h6.3v4.9h-6.3V76h-4.9v-6.3h-6.3zm-16.3 0h6.3v-6.3h4.9v6.3h6.3v4.9h-6.3V76h-4.9v-6.3h-6.3z"/>
</svg>
