<svg xmlns="http://www.w3.org/2000/svg" viewBox="0 0 128 128">
  <path fill="#f7df1e" d="M1.408 1.408h125.184v125.185H1.408z"/>
  <path d="M89.6 100.3c2.5 4.1 5.8 7.1 11.5 7.1 4.8 0 7.9-2.4 7.9-5.8 0-4-3.2-5.4-8.5-7.7l-2.9-1.2c-8.4-3.6-14-8.2-14-17.9 0-8.9 6.8-15.6 17.4-15.6 7.6 0 13 2.6 16.9 9.5l-9.2 5.9c-2-3.6-4.2-5-7.6-5-3.5 0-5.7 2.2-5.7 5 0 3.5 2.2 4.9 7.2 7.1l2.9 1.2c9.9 4.3 15.5 8.6 15.5 18.5 0 10.6-8.3 16.4-19.5 16.4-11 0-18.1-5.2-21.6-12.1zM47.4 101.3c1.8 3.2 3.5 5.9 7.6 5.9 3.8 0 6.3-1.5 6.3-7.4V59.6h11.7V100c0 12.2-7.1 17.7-17.5 17.7-9.4 0-14.9-4.9-17.7-10.8z"/>
</svg>
